<svg width="19" height="14" viewBox="0 0 19 14" fill="none" xmlns="http://www.w3.org/2000/svg">
<path d="M18.5832 2.11845C18.3748 1.28481 17.7149 0.624842 16.916 0.416431C15.4224 -0.000390053 9.51738 -0.000390053 9.51738 -0.000390053C9.51738 -0.000390053 3.57768 -0.000390053 2.08407 0.416431C1.28516 0.624842 0.625195 1.28481 0.416785 2.11845C-3.6642e-05 3.57733 -3.6642e-05 6.70349 -3.6642e-05 6.70349C-3.6642e-05 6.70349 -3.6642e-05 9.79491 0.416785 11.2885C0.625195 12.1222 1.28516 12.7474 2.08407 12.9558C3.57768 13.3379 9.51738 13.3379 9.51738 13.3379C9.51738 13.3379 15.4224 13.3379 16.916 12.9558C17.7149 12.7474 18.3748 12.1222 18.5832 11.2885C19.0001 9.79491 19.0001 6.70349 19.0001 6.70349C19.0001 6.70349 19.0001 3.57733 18.5832 2.11845ZM7.57222 9.51703V3.88994L12.5046 6.70349L7.57222 9.51703Z" fill="white"/>
</svg>
