<svg width="18" height="18" viewBox="0 0 18 18" fill="none" xmlns="http://www.w3.org/2000/svg">
<path d="M9.01995 4.37001C6.45427 4.37001 4.40974 6.45463 4.40974 8.98022C4.40974 11.5459 6.45427 13.5904 9.01995 13.5904C11.5455 13.5904 13.6302 11.5459 13.6302 8.98022C13.6302 6.45463 11.5455 4.37001 9.01995 4.37001ZM9.01995 11.9869C7.37631 11.9869 6.01329 10.6639 6.01329 8.98022C6.01329 7.33658 7.33622 6.01365 9.01995 6.01365C10.6636 6.01365 11.9865 7.33658 11.9865 8.98022C11.9865 10.6639 10.6636 11.9869 9.01995 11.9869ZM14.8729 4.20966C14.8729 3.60833 14.3918 3.12726 13.7905 3.12726C13.1892 3.12726 12.7081 3.60833 12.7081 4.20966C12.7081 4.81099 13.1892 5.29205 13.7905 5.29205C14.3918 5.29205 14.8729 4.81099 14.8729 4.20966ZM17.9197 5.29205C17.8395 3.84886 17.5188 2.56602 16.4765 1.52371C15.4341 0.481404 14.1513 0.160694 12.7081 0.0805162C11.2248 0.00033866 6.77498 0.00033866 5.29169 0.0805162C3.8485 0.160694 2.60575 0.481404 1.52335 1.52371C0.481044 2.56602 0.160334 3.84886 0.0801564 5.29205C-2.11314e-05 6.77534 -2.11314e-05 11.2252 0.0801564 12.7085C0.160334 14.1517 0.481044 15.3944 1.52335 16.4768C2.60575 17.5191 3.8485 17.8398 5.29169 17.92C6.77498 18.0002 11.2248 18.0002 12.7081 17.92C14.1513 17.8398 15.4341 17.5191 16.4765 16.4768C17.5188 15.3944 17.8395 14.1517 17.9197 12.7085C17.9998 11.2252 17.9998 6.77534 17.9197 5.29205ZM15.9954 14.2719C15.7148 15.0737 15.0734 15.675 14.3117 15.9958C13.109 16.4768 10.3028 16.3566 9.01995 16.3566C7.69702 16.3566 4.89081 16.4768 3.72823 15.9958C2.92646 15.675 2.32513 15.0737 2.00442 14.2719C1.52335 13.1094 1.64362 10.3031 1.64362 8.98022C1.64362 7.69738 1.52335 4.89117 2.00442 3.6885C2.32513 2.92682 2.92646 2.32549 3.72823 2.00478C4.89081 1.52371 7.69702 1.64398 9.01995 1.64398C10.3028 1.64398 13.109 1.52371 14.3117 2.00478C15.0734 2.2854 15.6747 2.92682 15.9954 3.6885C16.4765 4.89117 16.3562 7.69738 16.3562 8.98022C16.3562 10.3031 16.4765 13.1094 15.9954 14.2719Z" fill="white"/>
</svg>
