<svg width="30" height="30" viewBox="0 0 30 30" fill="none" xmlns="http://www.w3.org/2000/svg">
<path d="M11.4873 13.9349C11.2048 13.6525 10.8217 13.4938 10.4223 13.4938C10.0228 13.4938 9.63973 13.6525 9.35727 13.9349C9.07482 14.2174 8.91613 14.6005 8.91613 14.9999C8.91613 15.3994 9.07482 15.7825 9.35727 16.0649L13.8573 20.5649C13.9974 20.704 14.1637 20.8139 14.3464 20.8886C14.5292 20.9632 14.7249 21.0011 14.9223 20.9999C15.1276 20.9934 15.3294 20.9448 15.5152 20.8571C15.701 20.7693 15.8668 20.6444 16.0023 20.4899L26.5023 8.48994C26.7447 8.18893 26.8616 7.80596 26.8286 7.42087C26.7956 7.03577 26.6152 6.67829 26.325 6.42296C26.0349 6.16762 25.6573 6.03414 25.2712 6.05035C24.885 6.06655 24.52 6.23119 24.2523 6.50994L14.9223 17.3099L11.4873 13.9349Z" fill="#FF553E"/>
<path d="M28.4221 13.5C28.0243 13.5 27.6427 13.658 27.3614 13.9393C27.0801 14.2206 26.9221 14.6022 26.9221 15C26.9221 18.1826 25.6578 21.2348 23.4074 23.4853C21.1569 25.7357 18.1047 27 14.9221 27C12.5522 26.9989 10.2357 26.2961 8.26473 24.9803C6.29372 23.6645 4.75647 21.7945 3.8468 19.6062C2.93714 17.4178 2.6958 15.0091 3.15322 12.6838C3.61063 10.3585 4.74632 8.22073 6.41708 6.54C7.52814 5.41408 8.8526 4.52106 10.313 3.91322C11.7733 3.30538 13.3403 2.99491 14.9221 3C15.8813 3.00601 16.8369 3.11666 17.7721 3.33C17.9678 3.39053 18.1738 3.41034 18.3775 3.3882C18.5811 3.36606 18.7781 3.30244 18.9562 3.20127C19.1343 3.10009 19.2898 2.96351 19.4131 2.79993C19.5364 2.63636 19.6249 2.44926 19.6732 2.25017C19.7214 2.05108 19.7283 1.84422 19.6936 1.64235C19.6588 1.44048 19.583 1.24786 19.471 1.07639C19.3589 0.904911 19.2129 0.758206 19.042 0.645317C18.871 0.532427 18.6788 0.455746 18.4771 0.42C17.3118 0.145864 16.1192 0.00496114 14.9221 0C11.9586 0.0153953 9.06606 0.908281 6.60953 2.56598C4.15299 4.22368 2.24254 6.57189 1.11926 9.3143C-0.00401625 12.0567 -0.289779 15.0704 0.298035 17.975C0.885849 20.8797 2.3209 23.5451 4.42208 25.635C7.20712 28.4213 10.9826 29.9908 14.9221 30C18.9003 30 22.7156 28.4196 25.5287 25.6066C28.3417 22.7936 29.9221 18.9782 29.9221 15C29.9221 14.6022 29.764 14.2206 29.4827 13.9393C29.2014 13.658 28.8199 13.5 28.4221 13.5Z" fill="#FF553E"/>
</svg>
