<svg width="12" height="16" viewBox="0 0 12 16" fill="none" xmlns="http://www.w3.org/2000/svg">
<path d="M5.3334 15.5658C5.61247 15.9999 6.26364 15.9999 6.54272 15.5658C11.0699 9.05411 11.9071 8.37193 11.9071 5.9533C11.9071 2.66644 9.24042 -0.000259914 5.95356 -0.000259914C2.63569 -0.000259914 0 2.66644 0 5.9533C0 8.37193 0.806211 9.05411 5.3334 15.5658ZM5.95356 8.43395C4.55819 8.43395 3.47291 7.34867 3.47291 5.9533C3.47291 4.58894 4.55819 3.47265 5.95356 3.47265C7.31792 3.47265 8.43421 4.58894 8.43421 5.9533C8.43421 7.34867 7.31792 8.43395 5.95356 8.43395Z" fill="white"/>
</svg>
