<svg width="150" height="150" viewBox="0 0 150 150" fill="none" xmlns="http://www.w3.org/2000/svg">
<path d="M30.5661 125.739L30.6622 125.787C30.9929 125.952 31.3398 126.029 31.6808 126.029C32.5323 126.029 33.3449 125.542 33.759 124.713C34.3381 123.557 33.8209 122.125 32.6626 121.545C31.5022 120.969 30.0957 121.438 29.5177 122.594C28.9388 123.752 29.4081 125.16 30.5661 125.739Z" fill="#ED1D26"/>
<path d="M32.8137 131.516C31.6991 130.85 30.2628 131.218 29.6002 132.331C28.9388 133.443 29.3037 134.883 30.4151 135.544L30.5112 135.601C30.8797 135.821 31.2791 135.924 31.6716 135.924C32.4648 135.924 33.2337 135.501 33.6767 134.757C34.3381 133.644 33.9249 132.177 32.8137 131.516Z" fill="#ED1D26"/>
<path d="M76.0904 135.574C74.946 134.963 73.5259 135.406 72.9226 136.551C72.3184 137.695 72.7555 139.112 73.8999 139.716L74.0214 139.78C74.3624 139.961 74.7228 140.046 75.0753 140.046C75.9085 140.046 76.7038 139.574 77.1285 138.771C77.7327 137.627 77.2349 136.178 76.0904 135.574Z" fill="#ED1D26"/>
<path d="M119.424 121.541C118.263 120.964 116.858 121.442 116.285 122.603C115.711 123.763 116.187 125.171 117.348 125.743L117.445 125.791C117.772 125.953 118.115 126.029 118.453 126.029C119.309 126.029 120.124 125.537 120.536 124.704C121.109 123.543 120.584 122.113 119.424 121.541Z" fill="#ED1D26"/>
<path d="M119.574 131.509C118.458 130.85 117.022 131.225 116.366 132.342C115.709 133.457 116.082 134.894 117.198 135.551L117.295 135.608C117.66 135.823 118.055 135.924 118.444 135.924C119.242 135.924 120.013 135.496 120.455 134.747C121.11 133.63 120.689 132.166 119.574 131.509Z" fill="#ED1D26"/>
<path d="M128.421 104.251V100.171C132.176 96.8027 134.598 91.6036 134.598 85.7665C134.598 75.634 127.325 67.3908 118.386 67.3908C117.8 67.3908 117.231 67.4632 116.661 67.5323C119.445 61.5209 120.907 54.9584 120.907 48.2473C120.907 22.9362 100.311 2.34375 74.9954 2.34375C49.6798 2.34375 29.0853 22.9362 29.0853 48.247C29.0853 54.9396 30.5422 61.4885 33.3193 67.4944C32.7587 67.4276 32.1903 67.3908 31.6145 67.3908C22.6709 67.3908 15.3948 75.634 15.3948 85.7665C15.3948 91.6317 17.8416 96.8515 21.6298 100.219C21.62 100.305 21.579 100.381 21.579 100.47V104.251C10.8066 106.249 2.65039 115.839 2.65039 126.97V141.534C2.65039 142.829 3.69992 143.877 4.99414 143.877H41.5489V145.312C41.5489 146.608 42.5984 147.656 43.8927 147.656H106.099C107.394 147.656 108.443 146.608 108.443 145.312V143.877H145.006C146.3 143.877 147.35 142.829 147.35 141.534V126.97C147.35 115.839 139.194 106.249 128.421 104.251ZM129.043 109.208L125.084 114.727L122.165 112.468L126.763 108.75C127.539 108.859 128.301 109.005 129.043 109.208ZM58.2228 116.908C55.7698 111.878 51.5945 107.958 46.553 105.782C46.5331 105.777 46.5153 105.763 46.4954 105.759C44.9462 105.095 43.3346 104.56 41.6499 104.249V100.171C45.4044 96.8023 47.8252 91.6034 47.8252 85.7665C47.8252 85.5663 47.8044 85.372 47.7987 85.1733C50.5984 87.2419 53.6075 88.9934 56.8191 90.3919L56.8763 97.293C56.8763 103.711 59.663 108.429 63.6695 111.376V115.32C61.7741 115.646 59.9586 116.198 58.2228 116.908ZM39.9697 108.769C40.7471 108.876 41.5114 109.02 42.2588 109.223L38.3115 114.727L35.3933 112.468L39.9697 108.769ZM71.1355 82.3012C70.6857 81.7725 70.0311 81.4751 69.3502 81.4751C69.2232 81.4751 69.0938 81.4866 68.9656 81.5072C68.153 81.6422 67.471 82.1939 67.1689 82.9605C65.5747 87.0141 63.4988 88.1609 61.4755 88.4857V86.673C61.4755 79.2023 64.7141 74.7848 70.5941 74.2334C72.3657 74.0686 74.2105 74.1441 76.1581 74.2266C80.4657 74.4016 85.3306 74.6077 90.8959 72.2091C91.7427 72.9816 93.3003 75.6525 93.616 79.1843C93.8633 81.9401 93.4044 85.7487 89.9677 88.6141C81.8218 88.6071 76.3355 88.4147 71.1355 82.3012ZM88.4286 93.2927V97.293C88.4286 106.233 81.466 110.305 74.9956 110.305C68.5262 110.305 61.5636 106.233 61.5636 97.293V93.2065C64.1117 92.9358 67.4094 91.886 69.9704 87.8128C75.5035 92.7427 81.601 93.2416 88.4286 93.2927ZM65.3246 119.835L71.218 124.603L67.0878 127.799L61.8938 120.557C63.0022 120.223 64.1502 119.989 65.3246 119.835ZM68.3567 116.259V113.857C70.4802 114.611 72.7412 114.993 74.9954 114.993C77.2531 114.993 79.5172 114.61 81.6432 113.854V116.259L74.9966 121.631L68.3567 116.259ZM84.6739 119.835C85.8463 119.988 86.9928 120.222 88.0995 120.556L82.9044 127.799L78.7742 124.603L84.6739 119.835ZM86.3309 115.32V111.369C90.3329 108.422 93.1161 103.706 93.1161 97.293V92.0595C94.1473 91.1782 94.9831 90.2208 95.6804 89.2214C97.9637 88.0699 100.135 86.7258 102.192 85.2178C102.187 85.4016 102.167 85.5811 102.167 85.7665C102.167 91.6059 104.592 96.807 108.351 100.175C108.351 100.274 108.35 100.376 108.35 100.47V104.249C106.666 104.559 105.055 105.095 103.506 105.758C103.481 105.764 103.46 105.781 103.435 105.787C98.3991 107.964 94.2085 111.878 91.7499 116.897C90.0223 116.193 88.2163 115.645 86.3309 115.32ZM110.03 108.769L114.607 112.468L111.689 114.727L107.742 109.224C108.489 109.02 109.253 108.876 110.03 108.769ZM113.038 105.175V103.095C114.715 103.762 116.51 104.143 118.386 104.143C120.261 104.143 122.056 103.762 123.733 103.095V105.175L118.386 109.497L113.038 105.175ZM118.386 99.4561C113.036 99.4561 108.539 95.1033 107.243 89.2284C109.756 88.9151 112.919 87.814 115.394 83.8716C119.93 87.8977 124.781 88.9216 129.525 89.2172C128.232 95.0974 123.736 99.4561 118.386 99.4561ZM118.386 72.0783C124.393 72.0783 129.334 77.5662 129.858 84.5423C124.32 84.1809 120.362 82.8309 116.553 78.36C116.02 77.7352 115.2 77.4398 114.382 77.568C113.57 77.703 112.889 78.2569 112.588 79.0238C111 83.0679 108.928 84.206 106.907 84.533C107.435 77.5613 112.378 72.0783 118.386 72.0783ZM109.935 70.1184C107.331 71.937 105.205 74.553 103.844 77.6798C102.105 79.3819 100.23 80.9133 98.2395 82.2738C98.4814 80.0367 98.2674 77.823 97.7745 75.8309C105.455 69.4922 110.056 60.4791 110.695 50.5905H116.136C115.745 57.5332 113.626 64.2326 109.935 70.1184ZM77.3391 7.15008C98.1978 8.33133 114.919 25.0493 116.101 45.9035H110.706C109.539 28.0238 95.2231 13.7105 77.3391 12.5449V7.15008ZM74.9954 29.4572C76.2896 29.4572 77.3391 28.4077 77.3391 27.1134V17.2322C92.6401 18.3797 104.87 30.6066 106.018 45.9033H96.1374C94.8432 45.9033 93.7937 46.9528 93.7937 48.247C93.7937 49.5412 94.8432 50.5908 96.1374 50.5908H106.015C105.424 58.5588 101.871 65.8601 95.9645 71.2319C95.9499 71.2071 95.9368 71.1783 95.9223 71.1537C93.1723 66.4765 90.3113 67.3291 89.4988 67.7011C84.7243 69.8892 80.657 69.7186 76.3541 69.5423C74.3375 69.4598 72.2537 69.3717 70.1581 69.5665C65.6391 69.9902 62.1467 72.0935 59.8494 75.4591C50.7554 70.3777 44.7526 60.9698 43.9597 50.591H53.863C55.1572 50.591 56.2067 49.5415 56.2067 48.2473C56.2067 46.953 55.1572 45.9035 53.863 45.9035H43.982C45.1297 30.607 57.3563 18.3804 72.6516 17.2322V27.1132C72.6516 28.4077 73.7012 29.4572 74.9954 29.4572ZM72.6516 7.15008V12.5449C54.7721 13.7107 40.4598 28.024 39.2942 45.9035H33.8914C35.0731 25.0491 51.7941 8.33109 72.6516 7.15008ZM39.2562 50.5908C40.0637 62.7562 47.1048 73.7993 57.7984 79.6716C57.2691 81.3527 56.9457 83.2148 56.8379 85.2377C52.9016 83.3013 49.3093 80.7778 46.1431 77.667C44.7823 74.5437 42.6669 71.9259 40.0611 70.1123C36.368 64.2216 34.2486 57.5236 33.8548 50.5908H39.2562ZM31.6145 72.0783C37.6205 72.0783 42.5616 77.5664 43.0852 84.5426C37.5484 84.1819 33.5905 82.8323 29.7809 78.36C29.2477 77.7352 28.4305 77.4398 27.6099 77.568C26.7973 77.703 26.1165 78.2569 25.8155 79.0238C24.2279 83.0679 22.156 84.206 20.1348 84.533C20.6626 77.5613 25.6067 72.0783 31.6145 72.0783ZM20.4702 89.2284C22.9829 88.9151 26.1462 87.814 28.6217 83.8716C33.158 87.8995 38.0094 88.9226 42.752 89.2177C41.4594 95.0979 36.9631 99.4561 31.6142 99.4561C26.2651 99.4561 21.7672 95.1031 20.4702 89.2284ZM31.6145 104.144C33.4904 104.144 35.285 103.762 36.9622 103.095V105.175L31.6145 109.497L26.2667 105.175V103.096C27.9439 103.762 29.7385 104.144 31.6145 104.144ZM23.2365 108.75L27.8354 112.468L24.916 114.727L20.9574 109.208C21.699 109.005 22.4612 108.859 23.2365 108.75ZM7.33812 126.97C7.33812 120.284 11.0391 114.309 16.5336 111.082L22.5233 119.433C22.8941 119.95 23.4594 120.293 24.0889 120.385C24.2012 120.401 24.3144 120.41 24.4276 120.41C24.9437 120.41 25.4483 120.241 25.8615 119.92L31.6142 115.472L37.3662 119.92C37.7795 120.241 38.2841 120.41 38.8002 120.41C38.9124 120.41 39.0268 120.401 39.1388 120.385C39.7684 120.293 40.3337 119.95 40.7045 119.433L46.7054 111.067C49.8617 112.91 52.4274 115.689 54.0479 119.064C47.1802 123.42 42.4114 130.805 41.6567 139.19H19.3841V131.525C19.3841 130.229 18.3345 129.181 17.0403 129.181C15.7461 129.181 14.6966 130.229 14.6966 131.525V139.19H7.33812V126.97ZM103.756 142.969H46.2364V141.534C46.2364 133.453 50.7798 126.249 57.4866 122.456L64.6946 132.507C65.0654 133.024 65.6307 133.367 66.2602 133.459C66.3734 133.475 66.4869 133.484 66.5989 133.484C67.115 133.484 67.6196 133.315 68.0328 132.994L74.9956 127.608L81.9591 132.994C82.3723 133.315 82.877 133.484 83.3931 133.484C83.5053 133.484 83.6185 133.475 83.7317 133.459C84.3613 133.367 84.9266 133.024 85.2973 132.507L92.5065 122.454C99.2124 126.247 103.756 133.452 103.756 141.534V142.969ZM142.662 139.19H135.295V131.525C135.295 130.229 134.246 129.181 132.952 129.181C131.657 129.181 130.608 130.229 130.608 131.525V139.19H108.335C107.58 130.794 102.801 123.401 95.9216 119.047C97.5474 115.674 100.139 112.909 103.295 111.067L109.296 119.433C109.666 119.95 110.232 120.293 110.861 120.385C110.975 120.401 111.087 120.41 111.2 120.41C111.716 120.41 112.221 120.241 112.634 119.92L118.386 115.472L124.139 119.92C124.552 120.241 125.056 120.41 125.573 120.41C125.686 120.41 125.799 120.401 125.911 120.385C126.541 120.293 127.106 119.95 127.477 119.433L133.466 111.082C138.961 114.31 142.662 120.285 142.662 126.97V139.19Z" fill="#ED1D26"/>
</svg>
