<svg width="10" height="10" viewBox="0 0 10 10" fill="none" xmlns="http://www.w3.org/2000/svg">
<g clip-path="url(#clip0_207_380)">
<path d="M8.86819 3.44824L6.3887 3.08789L5.2803 0.840824C5.25003 0.7793 5.20023 0.729496 5.1387 0.699222C4.98441 0.623051 4.79691 0.686527 4.71976 0.840824L3.61136 3.08789L1.13187 3.44824C1.06351 3.45801 1.00101 3.49024 0.953159 3.53906C0.895309 3.59852 0.863431 3.67852 0.864529 3.76147C0.865628 3.84442 0.899614 3.92354 0.959018 3.98145L2.75296 5.73047L2.32913 8.20019C2.3192 8.25765 2.32555 8.31673 2.34749 8.37075C2.36942 8.42478 2.40605 8.47157 2.45322 8.50583C2.5004 8.5401 2.55623 8.56046 2.61439 8.5646C2.67254 8.56875 2.7307 8.55652 2.78226 8.5293L5.00003 7.36328L7.2178 8.5293C7.27835 8.56152 7.34866 8.57226 7.41605 8.56055C7.58597 8.53125 7.70023 8.37012 7.67093 8.20019L7.2471 5.73047L9.04104 3.98145C9.08987 3.9336 9.1221 3.8711 9.13186 3.80274C9.15823 3.63184 9.03909 3.47363 8.86819 3.44824Z" fill="#FF9F3F"/>
</g>
<defs>
<clipPath id="clip0_207_380">
<rect width="10" height="10" fill="white"/>
</clipPath>
</defs>
</svg>
