<svg width="24" height="26" viewBox="0 0 24 26" fill="none" xmlns="http://www.w3.org/2000/svg">
<path fill-rule="evenodd" clip-rule="evenodd" d="M8.39915 6.43249V10.3887L11.599 12.1656V7.85402L9.99908 7.14335L8.39915 6.43249Z" fill="white"/>
<path fill-rule="evenodd" clip-rule="evenodd" d="M12.0002 4.05144L8.97588 5.73074L12.0002 7.07466L15.0245 5.73074L12.0002 4.05144Z" fill="white"/>
<path fill-rule="evenodd" clip-rule="evenodd" d="M12.3989 7.85421V12.1658L15.5986 10.3887V6.43249L13.9987 7.14335L12.3989 7.85421Z" fill="white"/>
<path fill-rule="evenodd" clip-rule="evenodd" d="M21.6002 4.44324H20.8003V5.33171C20.8003 5.57706 20.6215 5.77603 20.4003 5.77603C20.1791 5.77603 20.0002 5.57706 20.0002 5.33171V4.44324H19.2003C18.9791 4.44324 18.8003 4.24409 18.8003 3.99892C18.8003 3.75376 18.9791 3.55461 19.2003 3.55461H20.0002V2.66614C20.0002 2.42079 20.1791 2.22182 20.4003 2.22182C20.6215 2.22182 20.8003 2.42079 20.8003 2.66614V3.55461H21.6002C21.8214 3.55461 22.0002 3.75376 22.0002 3.99892C22.0002 4.24409 21.8214 4.44324 21.6002 4.44324ZM21.6002 12.8844H19.6004C19.3792 12.8844 19.2004 12.6854 19.2004 12.4403C19.2004 12.1949 19.3792 11.996 19.6004 11.996H21.6002C21.8214 11.996 22.0002 12.1949 22.0002 12.4403C22.0002 12.6854 21.8214 12.8844 21.6002 12.8844ZM21.6002 14.6615H20.8003C20.5791 14.6615 20.4003 14.4625 20.4003 14.2173C20.4003 13.972 20.5791 13.773 20.8003 13.773H21.6002C21.8214 13.773 22.0002 13.972 22.0002 14.2173C22.0002 14.4625 21.8214 14.6615 21.6002 14.6615ZM19.2004 14.6615H17.6004C17.3792 14.6615 17.2004 14.4625 17.2004 14.2173C17.2004 13.972 17.3792 13.773 17.6004 13.773H19.2004C19.4216 13.773 19.6004 13.972 19.6004 14.2173C19.6004 14.4625 19.4216 14.6615 19.2004 14.6615ZM16.4005 10.6631C16.4005 10.8316 16.3149 10.9852 16.1793 11.0607L12.1795 13.2821C12.1739 13.2852 12.1671 13.2839 12.1608 13.287C12.1095 13.3118 12.0559 13.3287 12.0007 13.3287C11.9455 13.3287 11.892 13.3118 11.8407 13.287C11.8344 13.2839 11.8276 13.2852 11.8219 13.2821L7.82214 11.0607C7.68653 10.9852 7.60093 10.8316 7.60093 10.6631V6.81528C7.60093 6.42434 7.50335 5.96279 7.66129 5.59413C7.77537 5.32973 8.08574 5.23249 8.31052 5.10758L10.232 4.04048L11.8219 3.15726C11.9344 3.09506 12.0671 3.09506 12.1795 3.15726L15.2237 4.84807C15.5482 5.02817 15.9213 5.1396 16.1972 5.41371C16.4505 5.6648 16.4005 5.96246 16.4005 6.30398L16.4005 10.6631ZM6.40099 3.11051H4.40104C4.17983 3.11051 4.00102 2.91136 4.00102 2.66619C4.00102 2.42085 4.17983 2.22188 4.40104 2.22188H6.40099C6.6222 2.22188 6.80085 2.42085 6.80085 2.66619C6.80085 2.91136 6.6222 3.11051 6.40099 3.11051ZM6.40099 4.88741H5.60096C5.37975 4.88741 5.2011 4.68844 5.2011 4.44327C5.2011 4.19793 5.37975 3.99896 5.60096 3.99896H6.40099C6.6222 3.99896 6.80085 4.19793 6.80085 4.44327C6.80085 4.68844 6.6222 4.88741 6.40099 4.88741ZM5.88382 13.9028C6.04014 14.0766 6.04014 14.3574 5.88382 14.531C5.80582 14.6176 5.70339 14.6611 5.60096 14.6611C5.49868 14.6611 5.39625 14.6176 5.31825 14.531L4.40103 13.5124L3.48381 14.531C3.40581 14.6176 3.30354 14.6611 3.20111 14.6611C3.09867 14.6611 2.99624 14.6176 2.91824 14.531C2.76192 14.3574 2.76192 14.0766 2.91824 13.9028L3.83546 12.884L2.91824 11.8654C2.76192 11.6916 2.76192 11.4109 2.91824 11.2373C3.07472 11.0635 3.32749 11.0635 3.4838 11.2373L4.40102 12.2559L5.31824 11.2373C5.47456 11.0635 5.72733 11.0635 5.8838 11.2373C6.04011 11.4109 6.04011 11.6916 5.8838 11.8654L4.96657 12.884L5.88382 13.9028ZM2.00121 4.44292C2.00121 4.19757 2.18002 3.9986 2.40107 3.9986H4.001C4.22221 3.9986 4.40102 4.19757 4.40102 4.44292C4.40102 4.68808 4.22221 4.88705 4.001 4.88705H2.40107C2.18002 4.88705 2.00121 4.68808 2.00121 4.44292ZM2.40107 2.22153H2.80109C3.0223 2.22153 3.20111 2.4205 3.20111 2.66584C3.20111 2.91101 3.0223 3.11016 2.80109 3.11016H2.40107C2.18002 3.11016 2.00121 2.91101 2.00121 2.66584C2.00121 2.4205 2.18002 2.22153 2.40107 2.22153ZM17.6004 11.9952H18.0005C18.2217 11.9952 18.4003 12.1942 18.4003 12.4396C18.4003 12.6847 18.2217 12.8837 18.0005 12.8837H17.6004C17.3792 12.8837 17.2004 12.6847 17.2004 12.4396C17.2004 12.1942 17.3792 11.9952 17.6004 11.9952ZM22.2008 0H1.80039C0.80843 0 0.0012355 0.896525 0.0012355 1.99887V15.9938H24V1.99887C24 0.896525 23.1928 0 22.2008 0Z" fill="white"/>
<path fill-rule="evenodd" clip-rule="evenodd" d="M14.2562 20.882C14.2031 21.9167 14.6094 22.9331 15.3478 23.5468H8.65207C9.39045 22.9331 9.7973 21.9163 9.74357 20.8812L14.2562 20.882ZM7.03231e-05 18.8829C7.03231e-05 19.9847 0.807223 20.8813 1.79922 20.8813H8.94114C8.99794 21.6595 8.69436 22.4277 8.13204 22.8679L7.41209 23.4322C7.36597 23.4672 7.32762 23.5109 7.29606 23.5583C6.7936 23.6169 6.39972 24.0844 6.39972 24.6575C6.39972 25.2697 6.84812 25.7681 7.39963 25.7681H16.5992C17.1507 25.7681 17.5991 25.2697 17.5991 24.6575C17.5991 24.0848 17.2056 23.6175 16.7036 23.5583C16.6729 23.5112 16.6343 23.469 16.5895 23.4336L15.8679 22.8689C15.3056 22.4287 15.0012 21.66 15.0585 20.8813H22.1996C23.1919 20.8813 23.9988 19.9848 23.9988 18.883V16.8828H0L7.03231e-05 18.8829Z" fill="white"/>
</svg>
