<svg width="150" height="150" viewBox="0 0 150 150" fill="none" xmlns="http://www.w3.org/2000/svg">
<path d="M26.6475 21.058C26.7253 21.058 26.7975 21.0369 26.8746 21.035L33.5934 77.2156C28.3763 77.3469 24.1676 81.6064 24.1676 86.8501C24.1676 92.1762 28.5038 96.5089 33.8344 96.5089H116.198C121.524 96.5089 125.856 92.1762 125.856 86.8501C125.856 81.6038 121.647 77.342 116.43 77.2149L123.149 21.0348C123.227 21.0369 123.299 21.0577 123.376 21.0577C128.3 21.0577 132.305 17.0523 132.305 12.1278C132.305 7.20922 128.3 3.20703 123.376 3.20703C118.458 3.20703 114.456 7.20898 114.456 12.1278C114.456 14.852 115.706 17.2646 117.634 18.9038L95.3909 42.0634L78.968 20.0919C81.9014 18.627 83.94 15.6247 83.94 12.128C83.94 7.20945 79.9345 3.20727 75.0124 3.20727C70.0891 3.20727 66.0837 7.20922 66.0837 12.128C66.0837 15.6252 68.1225 18.6275 71.0566 20.0921L54.6328 42.0636L32.3925 18.9064C34.3231 17.2672 35.576 14.8536 35.576 12.128C35.576 7.20945 31.5706 3.20727 26.6473 3.20727C21.724 3.20727 17.719 7.20945 17.719 12.128C17.719 17.0525 21.7242 21.058 26.6475 21.058ZM123.376 7.895C125.715 7.895 127.618 9.79367 127.618 12.1283C127.618 14.4673 125.716 16.3707 123.376 16.3707C121.042 16.3707 119.143 14.4676 119.143 12.1283C119.143 9.79344 121.042 7.895 123.376 7.895ZM121.169 86.8501C121.169 89.5909 118.938 91.8214 116.198 91.8214H33.8344C31.0889 91.8214 28.8551 89.5909 28.8551 86.8501C28.8551 84.1093 31.0889 81.8788 33.8344 81.8788H116.198C118.939 81.8788 121.169 84.1091 121.169 86.8501ZM75.0127 7.895C77.3508 7.895 79.2527 9.79367 79.2527 12.1283C79.2527 14.4673 77.3508 16.3707 75.0127 16.3707C72.6745 16.3707 70.7714 14.4676 70.7714 12.1283C70.7714 9.79344 72.6745 7.895 75.0127 7.895ZM55.0003 48.0191C55.6882 47.9766 56.321 47.6345 56.7331 47.083L75.0127 22.6292L93.2911 47.083C93.7031 47.6347 94.3359 47.9766 95.0238 48.0191C95.7138 48.0591 96.3823 47.7992 96.8583 47.3037L117.908 25.3859L111.712 77.191H38.3126L32.1167 25.3859L53.1659 47.3037C53.6431 47.8004 54.3148 48.0636 55.0003 48.0191ZM26.6475 7.895C28.9856 7.895 30.8888 9.79367 30.8888 12.1283C30.8888 14.4673 28.9856 16.3707 26.6475 16.3707C24.3094 16.3707 22.4063 14.4676 22.4063 12.1283C22.4065 9.79344 24.3096 7.895 26.6475 7.895Z" fill="#EFA141"/>
<path d="M86.7588 69.9724C87.1673 70.7895 87.9855 71.2554 88.8381 71.2554C89.193 71.2554 89.5546 71.1752 89.8956 71.0048C91.0537 70.4257 91.5149 69.0021 90.9358 67.8441C90.3578 66.687 88.9502 66.2145 87.791 66.7957C86.6329 67.3748 86.1637 68.7825 86.7426 69.9406L86.7588 69.9724Z" fill="#EFA141"/>
<path d="M73.1208 70.3301C73.5773 70.939 74.2708 71.2571 74.9747 71.2571C75.4657 71.2571 75.9635 71.1026 76.3891 70.7822C77.4248 70.0062 77.6229 68.521 76.8457 67.4853C76.0708 66.4531 74.6039 66.24 73.5647 67.0172C72.529 67.7932 72.3194 69.2625 73.0966 70.2982L73.1208 70.3301Z" fill="#EFA141"/>
<path d="M59.032 69.9724C59.4405 70.7895 60.2587 71.2554 61.1113 71.2554C61.4662 71.2554 61.8278 71.1752 62.1688 71.0048C63.3269 70.4257 63.7881 69.0021 63.209 67.8441C62.6299 66.687 61.2257 66.2145 60.0642 66.7957C58.9061 67.3748 58.4369 68.7825 59.0158 69.9406L59.032 69.9724Z" fill="#EFA141"/>
<path d="M45.3702 70.298L45.3943 70.3301C45.8509 70.939 46.5444 71.2571 47.2482 71.2571C47.7393 71.2571 48.2371 71.1026 48.6627 70.7822C49.6984 70.0062 49.8965 68.521 49.1193 67.4853C48.3444 66.4531 46.8763 66.24 45.8382 67.0172C44.8025 67.793 44.5932 69.2623 45.3702 70.298Z" fill="#EFA141"/>
<path d="M100.849 70.3301C101.305 70.939 101.999 71.2571 102.703 71.2571C103.194 71.2571 103.692 71.1026 104.117 70.7822C105.153 70.0062 105.351 68.521 104.574 67.4853C103.799 66.4531 102.332 66.24 101.293 67.0172C100.257 67.7932 100.047 69.2625 100.825 70.2982L100.849 70.3301Z" fill="#EFA141"/>
<path d="M89.4413 105H60.5588C56.3394 105 52.9062 108.433 52.9062 112.653V139.146C52.9062 143.362 56.3394 146.791 60.5588 146.791H89.4413C93.6561 146.791 97.0859 143.362 97.0859 139.146V112.653C97.0859 108.433 93.6563 105 89.4413 105ZM60.5588 109.688H89.4413C91.0721 109.688 92.3984 111.017 92.3984 112.653V127.996L86.4589 123.219C85.6566 122.576 84.5328 122.529 83.6804 123.101L75.1705 128.831L66.8609 121.673C65.9534 120.891 64.6018 120.917 63.7288 121.738L57.5935 127.483V112.652C57.5935 111.017 58.9234 109.688 60.5588 109.688ZM89.4413 142.104H60.5588C58.9234 142.104 57.5938 140.776 57.5938 139.146V133.905L65.3963 126.598L73.4462 133.534L77.2341 137.027C77.6839 137.443 78.2539 137.647 78.8213 137.647C79.453 137.647 80.0837 137.393 80.5449 136.892C81.4227 135.941 81.3631 134.458 80.4111 133.58L78.7651 132.062L84.8661 127.954L92.3987 134.012V139.146C92.3984 140.749 91.0447 142.104 89.4413 142.104Z" fill="#EFA141"/>
<path d="M73.1208 121.358C73.5773 121.967 74.2708 122.285 74.9747 122.285C75.4657 122.285 75.9635 122.131 76.3891 121.811C77.4248 121.035 77.6229 119.549 76.8457 118.514C76.0708 117.481 74.6039 117.268 73.5647 118.046C72.529 118.822 72.3194 120.291 73.0966 121.327L73.1208 121.358Z" fill="#EFA141"/>
<path d="M38.8711 105H9.98953C5.77359 105 2.34375 108.433 2.34375 112.653V139.146C2.34375 143.362 5.77359 146.791 9.98953 146.791H38.8711C43.0917 146.791 46.5248 143.362 46.5248 139.146V112.653C46.5248 108.433 43.0915 105 38.8711 105ZM41.8373 139.146C41.8373 140.776 40.5063 142.104 38.8711 142.104H9.98953C8.35875 142.104 7.03125 140.776 7.03125 139.146V112.653C7.03125 111.017 8.35875 109.688 9.98953 109.688H38.8711C40.5066 109.688 41.8373 111.017 41.8373 112.653V139.146Z" fill="#EFA141"/>
<path d="M140.002 105H111.121C106.905 105 103.475 108.433 103.475 112.653V139.146C103.475 143.362 106.905 146.791 111.121 146.791H140.002C144.223 146.791 147.656 143.362 147.656 139.146V112.653C147.656 108.433 144.223 105 140.002 105ZM142.969 139.146C142.969 140.776 141.638 142.104 140.002 142.104H111.121C109.518 142.104 108.163 140.749 108.163 139.146V112.653C108.163 111.017 109.49 109.688 111.121 109.688H140.002C141.638 109.688 142.969 111.017 142.969 112.653V139.146Z" fill="#EFA141"/>
<path d="M133.779 115.467H117.352C116.058 115.467 115.009 116.516 115.009 117.811C115.009 119.105 116.058 120.154 117.352 120.154H123.222V133.988C123.222 135.282 124.272 136.332 125.566 136.332C126.86 136.332 127.909 135.282 127.909 133.988V120.154H133.779C135.073 120.154 136.123 119.105 136.123 117.811C136.123 116.516 135.073 115.467 133.779 115.467Z" fill="#EFA141"/>
<path d="M31.6359 122.582L20.5008 116.054C19.2579 115.453 17.9383 115.493 16.8708 116.16C15.8751 116.784 15.2571 117.886 15.2571 119.037V132.753C15.2571 133.901 15.874 135.003 16.8661 135.628C17.4131 135.972 18.0265 136.151 18.6858 136.151C19.3106 136.151 19.9767 135.99 20.6643 135.656L31.5546 129.261C32.8408 128.574 33.6248 127.269 33.603 125.934C33.625 124.529 32.8422 123.228 31.6359 122.582ZM19.9448 130.652V121.154L28.0289 125.899L19.9448 130.652Z" fill="#EFA141"/>
</svg>
