<svg width="150" height="150" viewBox="0 0 150 150" fill="none" xmlns="http://www.w3.org/2000/svg">
<path d="M107.962 116.936C106.765 117.428 106.195 118.799 106.688 119.996L106.704 120.035C107.074 120.934 107.937 121.47 108.852 121.47C109.153 121.47 109.459 121.413 109.756 121.289C110.953 120.797 111.515 119.408 111.022 118.211C110.528 117.013 109.158 116.448 107.962 116.936Z" fill="#00B293"/>
<path d="M115.533 117.11C114.431 117.79 114.09 119.234 114.77 120.335L114.795 120.374C115.234 121.086 115.988 121.473 116.764 121.473C117.189 121.473 117.619 121.358 118.008 121.118C119.109 120.438 119.439 118.973 118.758 117.872C118.077 116.769 116.634 116.428 115.533 117.11Z" fill="#00B293"/>
<path d="M145.092 53.5883C148.713 49.6698 148.475 43.5336 144.559 39.9081C142.665 38.1571 140.181 37.2667 137.606 37.3468C135.013 37.4453 132.621 38.5438 130.87 40.4389L130.86 40.4504C129.038 36.9374 125.402 34.543 121.185 34.543H106.118V22.1514C106.118 20.856 105.068 19.8076 103.774 19.8076H50.2395C49.5802 19.8076 48.9509 20.0846 48.5067 20.5721L35.7734 34.543H19.2764C13.2511 34.543 8.34844 39.4457 8.34844 45.4721V109.226C4.96078 109.727 2.34375 112.627 2.34375 116.153V123.155C2.34375 127.037 5.49773 130.193 9.37383 130.193H131.089C134.965 130.193 138.119 127.036 138.119 123.155V116.153C138.119 112.627 135.502 109.727 132.114 109.226V67.6225L145.092 53.5883ZM128.108 65.0507L108.171 86.6113L100.833 79.8254L126.811 51.7321L134.147 58.5203L128.118 65.0396C128.114 65.0434 128.111 65.0471 128.108 65.0507ZM106.118 109.122V93.3915L109.213 92.0814C109.215 92.0809 109.216 92.0793 109.217 92.0788C109.513 91.9529 109.789 91.765 110.021 91.5137L117.772 83.1315V109.122L106.118 109.122ZM98.5943 84.1403L104.044 89.1798L95.738 92.695L98.5943 84.1403ZM106.118 49.7429H117.772V54.6029L106.118 67.2067V49.7429ZM137.786 42.0296C139.147 41.9861 140.403 42.4485 141.376 43.348C143.396 45.2181 143.518 48.3857 141.649 50.4067L137.33 55.0778L129.995 48.2896L134.312 43.6204C135.212 42.6477 136.446 42.0824 137.786 42.0296ZM121.185 39.2305C124.228 39.2305 126.745 41.402 127.294 44.3059L122.46 49.5341V47.3994C122.46 46.104 121.41 45.0557 120.116 45.0557H106.118V39.2305H121.185ZM101.43 72.2757L95.7998 78.3648C95.5723 78.6109 95.4136 78.8936 95.3109 79.1914C95.3081 79.1999 95.3004 79.2055 95.2976 79.214L90.1814 94.5329H74.0573C72.7631 94.5329 71.7136 95.5813 71.7136 96.8767C71.7136 98.1721 72.7631 99.2204 74.0573 99.2204H91.8701C92.1952 99.2204 92.5043 99.1536 92.7858 99.0341L101.43 95.3755V109.122H39.7624V38.5621H50.7384C52.0327 38.5621 53.0822 37.5137 53.0822 36.2183V24.4949H101.43L101.43 72.2757ZM86.9461 113.809C86.6763 115.5 85.2232 116.799 83.4616 116.799H56.9995C55.2389 116.799 53.7858 115.5 53.5162 113.809H86.9461ZM22.6903 109.122V49.7429H35.0752V109.122H22.6903ZM42.7263 33.8746L48.3947 27.6545V33.8746H42.7263ZM19.2764 39.2305H35.0749V45.0557H20.3466C19.0523 45.0557 18.0028 46.104 18.0028 47.3994V109.122H13.0359V45.4721C13.0359 42.0296 15.8351 39.2305 19.2764 39.2305ZM133.431 116.153V123.155C133.431 124.45 132.381 125.505 131.089 125.505H9.37383C8.08172 125.505 7.03125 124.45 7.03125 123.155V116.153C7.03125 114.86 8.08172 113.809 9.37383 113.809H48.829C49.122 118.086 52.6542 121.486 56.9995 121.486H83.4616C87.8081 121.486 91.3404 118.086 91.6334 113.809H131.089C132.381 113.809 133.431 114.86 133.431 116.153ZM127.427 109.122H122.46V78.0627L127.427 72.6915V109.122Z" fill="#00B293"/>
<path d="M80.3112 80.1426H50.9067C49.6125 80.1426 48.563 81.1909 48.563 82.4863C48.563 83.7817 49.6125 84.8301 50.9067 84.8301H80.3112C81.6054 84.8301 82.6549 83.7817 82.6549 82.4863C82.6549 81.1909 81.6056 80.1426 80.3112 80.1426Z" fill="#00B293"/>
<path d="M80.3112 68.6162H50.9067C49.6125 68.6162 48.563 69.6646 48.563 70.96C48.563 72.2554 49.6125 73.3037 50.9067 73.3037H80.3112C81.6054 73.3037 82.6549 72.2554 82.6549 70.96C82.6549 69.6646 81.6056 68.6162 80.3112 68.6162Z" fill="#00B293"/>
<path d="M48.563 58.9121C48.563 60.2075 49.6125 61.2559 50.9067 61.2559H80.3112C81.6054 61.2559 82.6549 60.2075 82.6549 58.9121C82.6549 57.6167 81.6054 56.5684 80.3112 56.5684H50.9067C49.6125 56.5684 48.563 57.6167 48.563 58.9121Z" fill="#00B293"/>
<path d="M50.9067 45.0557C49.6125 45.0557 48.563 46.104 48.563 47.3994C48.563 48.6948 49.6125 49.7432 50.9067 49.7432H69.8696C71.1638 49.7432 72.2133 48.6948 72.2133 47.3994C72.2133 46.104 71.1638 45.0557 69.8696 45.0557H50.9067Z" fill="#00B293"/>
</svg>
