<svg width="9" height="9" viewBox="0 0 9 9" fill="none" xmlns="http://www.w3.org/2000/svg">
<g clip-path="url(#clip0_207_383)">
<path d="M8.49995 4.19531C8.59287 4.12609 8.66179 4.02953 8.69706 3.91916C8.73232 3.8088 8.73216 3.69016 8.6966 3.57989C8.66104 3.46962 8.59186 3.37324 8.49875 3.30427C8.40565 3.2353 8.2933 3.1972 8.17745 3.19531L5.92746 3.11031C5.91639 3.10955 5.90579 3.1056 5.89692 3.09895C5.88804 3.09229 5.88129 3.08322 5.87746 3.07281L5.09996 0.972811C5.06089 0.865971 4.98994 0.773716 4.89671 0.708535C4.80347 0.643355 4.69246 0.608398 4.57871 0.608398C4.46495 0.608398 4.35394 0.643355 4.26071 0.708535C4.16747 0.773716 4.09652 0.865971 4.05746 0.972811L3.28246 3.08031C3.27863 3.09072 3.27187 3.09979 3.263 3.10645C3.25413 3.1131 3.24352 3.11705 3.23246 3.11781L0.98246 3.20281C0.866611 3.2047 0.75426 3.2428 0.661158 3.31177C0.568057 3.38074 0.498875 3.47712 0.463313 3.58739C0.42775 3.69766 0.427591 3.8163 0.462856 3.92666C0.498122 4.03703 0.567045 4.13359 0.65996 4.20281L2.42496 5.59031C2.43379 5.59726 2.44039 5.60665 2.44395 5.61731C2.4475 5.62798 2.44785 5.63945 2.44496 5.65031L1.83746 7.80281C1.80598 7.91242 1.80903 8.02906 1.84619 8.13688C1.88336 8.2447 1.95284 8.33845 2.04517 8.40538C2.13751 8.47231 2.24822 8.50917 2.36225 8.51094C2.47627 8.51272 2.58808 8.47933 2.68246 8.41531L4.54746 7.16531C4.55664 7.15896 4.56754 7.15557 4.57871 7.15557C4.58987 7.15557 4.60077 7.15896 4.60996 7.16531L6.47496 8.41531C6.56806 8.48151 6.67946 8.51709 6.7937 8.51709C6.90795 8.51709 7.01935 8.48151 7.11245 8.41531C7.20481 8.34901 7.27436 8.25572 7.31152 8.14827C7.34867 8.04082 7.35162 7.9245 7.31995 7.81531L6.70746 5.65531C6.70421 5.64446 6.70439 5.63288 6.70797 5.62215C6.71155 5.61141 6.71835 5.60204 6.72746 5.59531L8.49995 4.19531ZM6.22496 5.77781L6.83746 7.93781C6.84244 7.94935 6.84333 7.96225 6.83996 7.97436C6.83659 7.98648 6.82917 7.99707 6.81894 8.00438C6.8087 8.01169 6.79628 8.01527 6.78373 8.01453C6.77117 8.01379 6.75926 8.00877 6.74996 8.00031L4.88496 6.75031C4.79345 6.68835 4.68547 6.65526 4.57496 6.65531V1.11031C4.58673 1.10936 4.59846 1.1126 4.60806 1.11946C4.61767 1.12632 4.62454 1.13637 4.62746 1.14781L5.40496 3.25031C5.44262 3.35393 5.51029 3.44399 5.59934 3.509C5.68839 3.574 5.79479 3.61101 5.90496 3.61531L8.15495 3.70031C8.16672 3.70012 8.17823 3.70371 8.18781 3.71055C8.19738 3.71738 8.20451 3.72711 8.20815 3.7383C8.21179 3.74949 8.21174 3.76155 8.20801 3.77271C8.20429 3.78387 8.19708 3.79355 8.18745 3.80031L6.42246 5.18781C6.33409 5.25494 6.26799 5.34713 6.23276 5.45236C6.19753 5.5576 6.19481 5.67101 6.22496 5.77781Z" fill="#FF9F3F"/>
</g>
<defs>
<clipPath id="clip0_207_383">
<rect width="8.99999" height="8.99999" fill="white"/>
</clipPath>
</defs>
</svg>
