<svg width="1181" height="462" viewBox="0 0 1181 462" fill="none" xmlns="http://www.w3.org/2000/svg">
<g opacity="0.65">
<path d="M131.063 369.054L131.925 369.56L131.063 369.054ZM688.825 226.514L689.555 227.199L688.825 226.514ZM899.536 136.104C900.088 136.104 900.536 135.656 900.536 135.103C900.536 134.551 900.088 134.103 899.536 134.103L899.536 136.104ZM19.3964 461.459C28.7473 462.528 45.4069 459.079 65.4244 445.647C85.4678 432.198 108.934 408.708 131.925 369.56L130.2 368.547C107.331 407.486 84.0584 430.734 64.3095 443.986C44.5348 457.254 28.3483 460.468 19.6236 459.471L19.3964 461.459ZM131.925 369.56C160.484 320.934 195.555 293.604 232.102 280.716C268.666 267.823 306.799 269.352 341.515 278.609L342.031 276.676C307.026 267.341 268.468 265.771 231.437 278.829C194.391 291.893 158.967 319.565 130.2 368.547L131.925 369.56ZM341.515 278.609C411.056 297.154 569.773 354.759 689.555 227.199L688.096 225.829C569.279 352.362 411.93 295.316 342.031 276.676L341.515 278.609ZM689.555 227.199C737.151 176.512 782.567 153.759 819.582 143.66C856.617 133.556 885.267 136.104 899.536 136.104L899.536 134.103C885.399 134.103 856.414 131.537 819.055 141.73C781.676 151.928 735.939 174.88 688.096 225.829L689.555 227.199Z" fill="url(#paint0_linear_207_302)"/>
<path d="M131.063 375.907L131.925 376.414L131.063 375.907ZM664.819 222.086L665.549 222.771L664.819 222.086ZM912.342 136.9C912.894 136.9 913.342 136.452 913.342 135.899C913.342 135.347 912.894 134.899 912.342 134.899V136.9ZM17.8822 461.687C36.4417 463.808 85.915 454.755 131.925 376.414L130.2 375.4C84.489 453.232 35.7012 461.709 18.1094 459.699L17.8822 461.687ZM131.925 376.414C160.49 327.776 193.54 302.016 228.042 290.684C262.567 279.344 298.679 282.408 333.436 291.676L333.951 289.743C298.988 280.419 262.447 277.277 227.418 288.782C192.366 300.295 158.961 326.429 130.2 375.4L131.925 376.414ZM333.436 291.676C403.129 310.261 545.81 350.285 665.549 222.771L664.09 221.401C545.23 347.979 403.699 308.342 333.951 289.743L333.436 291.676ZM665.549 222.771C760.637 121.508 883.814 136.9 912.342 136.9V134.899C884.059 134.899 759.88 119.391 664.09 221.401L665.549 222.771Z" fill="url(#paint1_linear_207_302)"/>
</g>
<circle opacity="0.65" cx="40.0205" cy="361.642" r="40.0205" fill="url(#paint2_linear_207_302)"/>
<circle opacity="0.65" cx="314.813" cy="135.06" r="40.0205" fill="url(#paint3_linear_207_302)"/>
<circle opacity="0.65" cx="1160.99" cy="342.026" r="20.0103" transform="rotate(-1.11722 1160.99 342.026)" fill="url(#paint4_linear_207_302)"/>
<circle cx="87.5449" cy="241.377" r="29.5154" stroke="#0FE124"/>
<circle cx="224.615" cy="40.0205" r="39.5205" stroke="#0FE124"/>
<rect x="1090.56" y="15.2608" width="10.0051" height="10.0051" rx="5" fill="#BDEFFB"/>
<rect x="1110.57" y="15.2608" width="10.0051" height="10.0051" rx="5" fill="#BDEFFB"/>
<rect x="1130.58" y="15.2608" width="10.0051" height="10.0051" rx="5" fill="#BDEFFB"/>
<rect x="1150.59" y="15.2608" width="10.0051" height="10.0051" rx="5" fill="#BDEFFB"/>
<rect x="1170.6" y="15.2608" width="10.0051" height="10.0051" rx="5" fill="#BDEFFB"/>
<rect x="1090.56" y="35.271" width="10.0051" height="10.0051" rx="5" fill="#BDEFFB"/>
<rect x="1110.57" y="35.271" width="10.0051" height="10.0051" rx="5" fill="#BDEFFB"/>
<rect x="1130.58" y="35.271" width="10.0051" height="10.0051" rx="5" fill="#BDEFFB"/>
<rect x="1150.59" y="35.271" width="10.0051" height="10.0051" rx="5" fill="#BDEFFB"/>
<rect x="1170.6" y="35.271" width="10.0051" height="10.0051" rx="5" fill="#BDEFFB"/>
<rect x="1090.56" y="55.2813" width="10.0051" height="10.0051" rx="5" fill="#BDEFFB"/>
<rect x="1110.57" y="55.2813" width="10.0051" height="10.0051" rx="5" fill="#BDEFFB"/>
<rect x="1130.58" y="55.2813" width="10.0051" height="10.0051" rx="5" fill="#BDEFFB"/>
<rect x="1150.59" y="55.2813" width="10.0051" height="10.0051" rx="5" fill="#BDEFFB"/>
<rect x="1170.6" y="55.2813" width="10.0051" height="10.0051" rx="5" fill="#BDEFFB"/>
<rect x="1090.56" y="75.2916" width="10.0051" height="10.0051" rx="5" fill="#BDEFFB"/>
<rect x="1110.57" y="75.2916" width="10.0051" height="10.0051" rx="5" fill="#BDEFFB"/>
<rect x="1130.58" y="75.2916" width="10.0051" height="10.0051" rx="5" fill="#BDEFFB"/>
<rect x="1150.59" y="75.2916" width="10.0051" height="10.0051" rx="5" fill="#BDEFFB"/>
<rect x="1170.6" y="75.2916" width="10.0051" height="10.0051" rx="5" fill="#BDEFFB"/>
<defs>
<linearGradient id="paint0_linear_207_302" x1="837.562" y1="142.85" x2="70.6383" y2="423.28" gradientUnits="userSpaceOnUse">
<stop stop-color="#0FE124"/>
<stop offset="1" stop-color="#F35A39"/>
</linearGradient>
<linearGradient id="paint1_linear_207_302" x1="837.562" y1="149.702" x2="70.6383" y2="430.133" gradientUnits="userSpaceOnUse">
<stop stop-color="#0FE124"/>
<stop offset="1" stop-color="#F35A39"/>
</linearGradient>
<linearGradient id="paint2_linear_207_302" x1="59.4962" y1="321.786" x2="3.6414" y2="412.291" gradientUnits="userSpaceOnUse">
<stop stop-color="#045FFF"/>
<stop offset="1" stop-color="white" stop-opacity="0"/>
</linearGradient>
<linearGradient id="paint3_linear_207_302" x1="334.429" y1="95.0878" x2="278.575" y2="185.593" gradientUnits="userSpaceOnUse">
<stop stop-color="#045FFF"/>
<stop offset="1" stop-color="white" stop-opacity="0"/>
</linearGradient>
<linearGradient id="paint4_linear_207_302" x1="1171.31" y1="322.181" x2="1143.39" y2="367.433" gradientUnits="userSpaceOnUse">
<stop stop-color="#045FFF"/>
<stop offset="1" stop-color="white" stop-opacity="0"/>
</linearGradient>
</defs>
</svg>
