<svg width="9" height="10" viewBox="0 0 9 10" fill="none" xmlns="http://www.w3.org/2000/svg">
<path d="M8.80478 4.3403C8.98194 4.14854 9.04447 3.8671 8.96806 3.60547C8.89147 3.34385 8.69197 3.15709 8.44687 3.11746L6.2677 2.76576C6.17489 2.75075 6.09469 2.68609 6.05324 2.59261L5.07899 0.399541C4.9696 0.153131 4.74758 0 4.50014 0C4.25288 0 4.03086 0.153131 3.92147 0.399541L2.94704 2.59281C2.90559 2.68629 2.82521 2.75095 2.7324 2.76596L0.553226 3.11766C0.308312 3.15709 0.108633 3.34405 0.0320411 3.60567C-0.0443706 3.8673 0.0181644 4.14874 0.195317 4.3405L1.77203 6.04756C1.83925 6.12042 1.87007 6.22531 1.85421 6.32779L1.48224 8.73825C1.44926 8.95043 1.49936 9.15681 1.62299 9.31955C1.8151 9.57316 2.15048 9.65043 2.41864 9.49389L4.3675 8.35572C4.44896 8.30828 4.5515 8.30868 4.63278 8.35572L6.58182 9.49389C6.67661 9.54934 6.77771 9.57737 6.88206 9.57737C7.07255 9.57737 7.25312 9.48329 7.37729 9.31955C7.5011 9.15681 7.55102 8.95003 7.51804 8.73825L7.14589 6.32779C7.13003 6.22511 7.16085 6.12042 7.22807 6.04756L8.80478 4.3403Z" fill="white"/>
</svg>
