<svg width="18" height="15" viewBox="0 0 18 15" fill="none" xmlns="http://www.w3.org/2000/svg">
<path d="M16.1682 3.62822C16.8727 3.09985 17.5067 2.46581 17.9999 1.72608C17.3658 2.00788 16.6261 2.21923 15.8864 2.28968C16.6613 1.83176 17.2249 1.12726 17.5067 0.246642C16.8022 0.66934 15.9921 0.986364 15.1819 1.16249C14.4774 0.422766 13.5263 6.86882e-05 12.4696 6.86882e-05C10.4265 6.86882e-05 8.77098 1.65564 8.77098 3.69867C8.77098 3.98047 8.8062 4.26227 8.87665 4.54407C5.81209 4.36795 3.06456 2.8885 1.23287 0.66934C0.915845 1.19771 0.739721 1.83176 0.739721 2.53626C0.739721 3.80435 1.37377 4.93154 2.39529 5.60081C1.79647 5.56559 1.19764 5.42469 0.704496 5.14289V5.17812C0.704496 6.97458 1.97259 8.45402 3.66338 8.80627C3.38158 8.87672 3.02933 8.94717 2.71231 8.94717C2.46574 8.94717 2.25439 8.91195 2.00781 8.87672C2.46574 10.3562 3.83951 11.4129 5.45985 11.4481C4.19175 12.4344 2.60664 13.0333 0.88062 13.0333C0.563597 13.0333 0.281799 12.998 0 12.9628C1.62034 14.0195 3.55771 14.6184 5.6712 14.6184C12.4696 14.6184 16.1682 9.01762 16.1682 4.12137C16.1682 3.94525 16.1682 3.80435 16.1682 3.62822Z" fill="white"/>
</svg>
